<?xml version="1.0" standalone="no"?>
<!DOCTYPE svg PUBLIC "-//W3C//DTD SVG 20010904//EN"
 "http://www.w3.org/TR/2001/REC-SVG-20010904/DTD/svg10.dtd">
<svg version="1.0" xmlns="http://www.w3.org/2000/svg"
 width="840.000000pt" height="840.000000pt" viewBox="0 0 840.000000 840.000000"
 preserveAspectRatio="xMidYMid meet">
<metadata>
Created by potrace 1.14, written by Peter Selinger 2001-2017
</metadata>
<g transform="translate(0.000000,840.000000) scale(0.100000,-0.100000)"
fill="#000000" stroke="none">
<path d="M6120 8318 c-1 -46 -3 -486 -5 -978 -8 -1549 -14 -2670 -20 -3435 -4
-407 -8 -981 -9 -1276 -2 -295 -6 -541 -10 -547 -3 -6 -2 -13 3 -16 5 -3 6
-21 1 -39 -4 -18 -4 -42 1 -53 16 -44 -6 -43 -91 6 -47 27 -94 56 -105 65 -10
8 -23 15 -27 15 -5 0 -25 11 -46 24 -46 29 -571 334 -649 377 -32 17 -69 39
-83 49 -14 9 -32 20 -40 23 -8 4 -55 31 -105 60 -79 46 -90 57 -92 83 -2 21
-3 449 -2 519 0 6 0 81 -1 168 l-2 157 -42 -2 c-24 0 -48 2 -54 6 -6 3 -13 2
-17 -3 -3 -6 -15 -7 -28 -2 -12 4 -35 4 -52 1 -16 -3 -40 -3 -52 1 -12 5 -25
4 -28 -1 -3 -5 -15 -6 -28 -1 -12 5 -31 5 -42 1 -11 -4 -29 -4 -40 0 -11 4
-29 4 -40 0 -11 -4 -24 -5 -29 -2 -4 2 -31 4 -60 3 -123 -3 -145 -3 -155 4 -6
3 -11 1 -11 -5 0 -6 -5 -8 -11 -4 -10 6 -88 8 -114 4 -26 -5 -52 -4 -71 2 -11
3 -27 3 -34 -2 -7 -4 -24 -5 -39 -1 -14 4 -37 5 -51 1 -14 -4 -35 -3 -47 1
-12 5 -25 4 -28 -1 -3 -5 -15 -6 -27 -1 -12 4 -36 5 -53 1 -17 -4 -39 -4 -49
0 -27 9 -74 0 -80 -16 -3 -8 -1 -14 5 -14 6 0 8 -4 5 -8 -7 -12 -8 -79 -6
-887 0 -218 0 -434 -2 -444 -2 -23 17 -38 144 -112 79 -45 163 -94 188 -109
25 -15 65 -39 90 -53 25 -13 133 -75 240 -137 107 -62 220 -126 250 -143 30
-16 62 -35 70 -41 8 -6 24 -16 35 -22 21 -11 83 -46 160 -90 25 -14 96 -54
157 -90 61 -35 115 -64 119 -64 5 0 9 -3 9 -8 0 -4 17 -15 38 -25 20 -10 51
-26 67 -37 17 -10 46 -27 65 -38 19 -11 180 -103 358 -206 177 -102 327 -186
332 -186 6 0 10 -3 10 -8 0 -4 21 -18 48 -32 26 -13 63 -34 82 -46 19 -11 55
-32 80 -46 25 -14 61 -34 81 -46 20 -11 47 -26 60 -34 13 -7 31 -18 39 -25 8
-6 20 -12 25 -13 8 -2 52 -26 220 -123 206 -118 690 -385 711 -391 13 -4 21
-2 21 6 0 7 3 45 7 83 16 189 26 506 43 1405 2 157 7 1769 10 3583 l5 3297
-601 0 -601 0 0 -82z"/>
<path d="M1146 8263 c-8 -45 -16 -162 -21 -293 -2 -52 -4 -95 -5 -95 -3 0 -17
-582 -26 -1080 -3 -154 -8 -1746 -11 -3537 l-5 -3258 601 0 c566 0 601 1 601
18 1 9 3 465 5 1012 8 1810 19 3409 31 4670 5 513 5 591 3 608 -1 4 -1 24 0
45 l1 38 49 -28 c28 -15 104 -59 171 -98 67 -38 147 -84 178 -102 32 -17 62
-35 67 -40 6 -4 21 -14 35 -20 14 -7 46 -25 72 -40 47 -29 140 -83 193 -113
17 -10 80 -46 140 -81 61 -35 112 -67 113 -71 2 -4 7 -8 12 -8 5 0 53 -26 107
-58 l98 -58 2 -189 c1 -105 3 -301 3 -438 l1 -247 43 1 c23 1 48 -1 54 -5 6
-3 13 -2 17 4 4 6 11 7 17 4 10 -6 69 -7 141 -1 17 1 42 -1 54 -5 12 -4 25 -3
28 3 4 5 11 7 16 3 10 -6 69 -7 139 -1 19 1 45 -1 57 -5 12 -4 25 -3 28 3 4 5
11 6 17 3 10 -6 69 -7 141 -1 17 1 42 -1 54 -5 12 -4 25 -3 28 2 3 5 15 6 28
1 12 -5 31 -5 42 -1 11 4 29 4 41 0 11 -5 27 -4 35 0 8 5 21 5 28 1 7 -5 27
-5 45 -1 17 4 40 4 51 0 11 -4 29 -4 40 0 11 4 28 4 38 1 10 -4 35 -5 57 -3
l39 4 0 677 c0 373 1 682 2 687 5 28 -5 37 -96 89 -11 7 -37 22 -57 33 -21 12
-55 32 -75 43 -46 26 -190 109 -218 126 -11 7 -27 16 -35 20 -8 4 -48 26 -88
50 -40 24 -77 43 -82 43 -6 0 -10 5 -10 10 0 6 -4 10 -9 10 -9 0 -97 48 -158
86 -13 8 -24 13 -25 12 -2 -1 -24 12 -50 30 -26 18 -49 32 -52 32 -3 0 -40 20
-82 45 -41 25 -80 45 -85 45 -5 0 -9 4 -9 9 0 5 -8 11 -17 14 -10 3 -40 19
-68 35 -104 61 -171 100 -205 118 -19 10 -36 22 -38 27 -2 4 -7 7 -12 7 -4 0
-46 23 -93 50 -47 28 -88 50 -93 50 -4 0 -15 6 -23 14 -9 7 -36 25 -61 38 -50
27 -397 230 -445 259 -16 11 -37 22 -45 26 -8 4 -46 26 -85 48 -38 23 -90 53
-115 67 -25 14 -85 49 -135 78 -49 29 -108 62 -130 74 -22 12 -41 24 -43 29
-2 4 -7 7 -11 7 -5 0 -111 59 -237 131 -126 72 -251 143 -279 158 -119 67
-153 86 -208 117 -32 19 -62 34 -66 34 -5 0 -14 7 -21 15 -6 8 -15 14 -18 13
-4 -1 -26 8 -49 20 -23 12 -46 22 -52 22 -5 0 -12 -17 -15 -37z"/>
</g>
</svg>
